<svg id="Capa_1" data-name="Capa 1" xmlns="http://www.w3.org/2000/svg" viewBox="0 0 27.1 26.64"><defs><style>.cls-1{fill:#fff;}.cls-2{fill:#00487b;}</style></defs><title>astereo</title><path class="cls-1" d="M188.55,824.21A13.55,13.55,0,1,1,175,810.89a13.44,13.44,0,0,1,13.55,13.32h0Zm0,0" transform="translate(-161.45 -810.89)"/><path class="cls-2" d="M182,820.34a0.54,0.54,0,0,0-.55.54v3.36a6.56,6.56,0,0,1-13.11,0v-3.36a0.55,0.55,0,0,0-1.09,0v3.36a7.58,7.58,0,0,0,7.1,7.5v2.79h-2.83a0.54,0.54,0,1,0,0,1.07h6.75a0.54,0.54,0,1,0,0-1.07h-2.83v-2.79a7.58,7.58,0,0,0,7.1-7.5v-3.36A0.54,0.54,0,0,0,182,820.34Z" transform="translate(-161.45 -810.89)"/><path class="cls-2" d="M174.58,829.05h0.73a4.5,4.5,0,0,0,4.53-4.46v-7.43a4.5,4.5,0,0,0-4.53-4.46h-0.73a4.5,4.5,0,0,0-4.53,4.46v7.43A4.5,4.5,0,0,0,174.58,829.05Zm-1.49-14.93v1.52a0.55,0.55,0,0,0,1.09,0v-1.83c0.13,0,1.39,0,1.52,0v1.83a0.55,0.55,0,0,0,1.09,0v-1.52a3.38,3.38,0,0,1,1.95,3v1.4h-2a0.54,0.54,0,1,0,0,1.07h2v1.5h-2a0.54,0.54,0,1,0,0,1.07h2v1.5h-2a0.54,0.54,0,1,0,0,1.07h2a3.42,3.42,0,0,1-3.43,3.2h-0.73a3.42,3.42,0,0,1-3.43-3.2h2a0.54,0.54,0,1,0,0-1.07h-2v-1.5h2a0.54,0.54,0,1,0,0-1.07h-2v-1.5h2a0.54,0.54,0,1,0,0-1.07h-2v-1.4A3.38,3.38,0,0,1,173.09,814.12Z" transform="translate(-161.45 -810.89)"/></svg>