<svg id="Capa_1" data-name="Capa 1" xmlns="http://www.w3.org/2000/svg" viewBox="0 0 27.1 26.64"><defs><style>.cls-1{fill:#fff;}.cls-2{fill:#00487b;}</style></defs><title>atech</title><path class="cls-1" d="M334.2,824.06a13.55,13.55,0,1,1-13.55-13.32,13.44,13.44,0,0,1,13.55,13.32h0Zm0,0" transform="translate(-307.1 -810.74)"/><path class="cls-2" d="M324.72,825.41h-0.79a5.36,5.36,0,0,0-.93-2.14l0.55-.54a0.28,0.28,0,0,0,0-.4l-1-.94a0.29,0.29,0,0,0-.4,0l-0.56.55a5.55,5.55,0,0,0-2.14-.86V820.3a0.28,0.28,0,0,0-.29-0.28h-1.35a0.28,0.28,0,0,0-.28.28v0.79a5.53,5.53,0,0,0-2.15.87l-0.55-.54a0.29,0.29,0,0,0-.4,0l-1,.94a0.28,0.28,0,0,0-.08.2,0.28,0.28,0,0,0,.08.2l0.54,0.53a5.35,5.35,0,0,0-.92,2.12h-0.72a0.28,0.28,0,0,0-.28.28V827a0.28,0.28,0,0,0,.28.28h0.69a5.35,5.35,0,0,0,.89,2.16l-0.5.5a0.27,0.27,0,0,0,0,.4l1,0.94a0.29,0.29,0,0,0,.4,0l0.49-.48a5.53,5.53,0,0,0,2.24.92v0.67a0.28,0.28,0,0,0,.28.28h1.35a0.28,0.28,0,0,0,.29-0.28v-0.67a5.53,5.53,0,0,0,2.22-.92l0.5,0.49a0.3,0.3,0,0,0,.4,0l1-.94a0.28,0.28,0,0,0,0-.4l-0.51-.5a5.34,5.34,0,0,0,.9-2.17h0.76A0.28,0.28,0,0,0,325,827v-1.33a0.28,0.28,0,0,0-.28-0.28h0Zm-6.15,3.89a2.95,2.95,0,1,1,3-2.95,3,3,0,0,1-3,2.95h0Zm1.14-2.95a1.14,1.14,0,1,1-1.14-1.12,1.13,1.13,0,0,1,1.14,1.12h0Zm9.37-6.27-0.38-.16a3,3,0,0,0,0-1.34l0.41-.16a0.16,0.16,0,0,0,.09-0.21l-0.29-.71a0.16,0.16,0,0,0-.21-0.09l-0.42.16a3.11,3.11,0,0,0-1-.94l0.18-.4a0.15,0.15,0,0,0,0-.12,0.16,0.16,0,0,0-.09-0.09l-0.71-.3a0.16,0.16,0,0,0-.21.08l-0.18.41a3.2,3.2,0,0,0-1.32,0l-0.17-.42a0.16,0.16,0,0,0-.21-0.09l-0.72.28a0.16,0.16,0,0,0-.09.21l0.17,0.42a3.11,3.11,0,0,0-1,.91l-0.41-.17a0.16,0.16,0,0,0-.21.08l-0.31.7a0.16,0.16,0,0,0,.09.21l0.4,0.17a3,3,0,0,0,0,1.32l-0.38.15a0.16,0.16,0,0,0-.09.21l0.29,0.71a0.16,0.16,0,0,0,.21.09l0.37-.14a3.11,3.11,0,0,0,.93,1l-0.16.37a0.16,0.16,0,0,0,.08.21l0.71,0.3a0.17,0.17,0,0,0,.12,0,0.17,0.17,0,0,0,.09-0.09l0.16-.36a3.19,3.19,0,0,0,1.39,0l0.14,0.36a0.16,0.16,0,0,0,.21.09l0.72-.28a0.16,0.16,0,0,0,.09-0.21l-0.14-.36a3.12,3.12,0,0,0,1-.95l0.37,0.16a0.17,0.17,0,0,0,.21-0.08l0.3-.7a0.16,0.16,0,0,0-.08-0.21h0Zm-2.8.68a1.72,1.72,0,0,1-2.23-.94,1.68,1.68,0,0,1,1-2.19,1.72,1.72,0,0,1,2.23.94,1.68,1.68,0,0,1-1,2.19h0Zm0-1.8a0.64,0.64,0,0,1-.36.83,0.66,0.66,0,0,1-.84-0.36,0.64,0.64,0,0,1,.36-0.83,0.65,0.65,0,0,1,.84.36h0Zm0,0" transform="translate(-307.1 -810.74)"/></svg>