<svg id="Capa_1" data-name="Capa 1" xmlns="http://www.w3.org/2000/svg" viewBox="0 0 27.1 26.64"><defs><style>.cls-1{fill:#fff;}.cls-2{fill:#00487b;}</style></defs><title>aunartv</title><path class="cls-1" d="M238,824.34A13.55,13.55,0,1,1,224.44,811,13.44,13.44,0,0,1,238,824.34h0Zm0,0" transform="translate(-210.89 -811.02)"/><path class="cls-2" d="M231.41,816.53h-13.7a2.23,2.23,0,0,0-2.24,2.2v8.54a2.23,2.23,0,0,0,2.24,2.2h6.34v2.1h-3.16a0.5,0.5,0,1,0,0,1h7.34a0.5,0.5,0,1,0,0-1h-3.16v-2.1h6.34a2.23,2.23,0,0,0,2.24-2.2v-8.54a2.22,2.22,0,0,0-2.24-2.2h0Zm-13.7,1h13.71a1.22,1.22,0,0,1,1.22,1.2v7.14H216.49v-7.14a1.21,1.21,0,0,1,1.22-1.2h0Zm13.7,10.95h-13.7a1.22,1.22,0,0,1-1.22-1.2v-0.4h16.15v0.4a1.22,1.22,0,0,1-1.22,1.2h0Zm0,0" transform="translate(-210.89 -811.02)"/></svg>