<svg id="Capa_1" data-name="Capa 1" xmlns="http://www.w3.org/2000/svg" viewBox="0 0 27.1 26.64"><defs><style>.cls-1{fill:#fff;}.cls-2{fill:#00487b;}</style></defs><title>bdocentes</title><path class="cls-1" d="M436.19,824.41a13.55,13.55,0,1,1-13.55-13.32,13.44,13.44,0,0,1,13.55,13.32h0Zm0,0" transform="translate(-409.09 -811.09)"/><path class="cls-2" d="M420.76,819.91a1.8,1.8,0,0,0-3.6,0A1.8,1.8,0,0,0,420.76,819.91Zm-1.8.88a0.89,0.89,0,0,1-.9-0.88,0.9,0.9,0,1,1,1.8,0A0.89,0.89,0,0,1,419,820.8Z" transform="translate(-409.09 -811.09)"/><path class="cls-2" d="M416.26,827.87a1.36,1.36,0,0,0,.45-0.08v4.08a1.34,1.34,0,0,0,1.35,1.33,1.36,1.36,0,0,1,1.8,0,1.34,1.34,0,0,0,1.35-1.33V826a1.38,1.38,0,0,0,1.05-.06l1.51-.74h5.14a1.34,1.34,0,0,0,1.35-1.33v-4.45a1.34,1.34,0,0,0-1.35-1.33h-6.36a1.34,1.34,0,0,0-1.35,1.33v3l-0.4-.39a1.35,1.35,0,0,0-1-.39h-2.7a2.23,2.23,0,0,0-2.25,2.21v2.65A1.34,1.34,0,0,0,416.26,827.87Zm6.3-8.87h6.36a0.45,0.45,0,0,1,.45.44v4.45a0.45,0.45,0,0,1-.45.44h-4.19v0a1.3,1.3,0,0,0,.06-0.58l2.46-1.21a0.44,0.44,0,0,0,.2-0.59,0.45,0.45,0,0,0-.6-0.2l-2.46,1.21a1.37,1.37,0,0,0-1.54-.23l-0.75.37v-3.63A0.45,0.45,0,0,1,422.56,819Zm-6.75,4.89a1.34,1.34,0,0,1,1.35-1.33h2.7a0.45,0.45,0,0,1,.32.13l1.34,1.32a0.46,0.46,0,0,0,.52.08l1.22-.6a0.45,0.45,0,0,1,.6.2,0.44,0.44,0,0,1-.2.59l-1.8.88a0.46,0.46,0,0,1-.52-0.08l-0.26-.26a0.45,0.45,0,0,0-.77.31h0v6.74a0.45,0.45,0,0,1-.9,0v-4.45a0.45,0.45,0,0,0-.9,0v4.45a0.45,0.45,0,0,1-.9,0v-8a0.45,0.45,0,0,0-.9,0v2.65a0.45,0.45,0,0,1-.9,0C415.81,826.21,415.81,824.17,415.81,823.89Z" transform="translate(-409.09 -811.09)"/></svg>