<svg id="Capa_1" data-name="Capa 1" xmlns="http://www.w3.org/2000/svg" viewBox="0 0 27.1 26.64"><defs><style>.cls-1{fill:#fff;}.cls-2{fill:#00487b;}</style></defs><title>bestudiantes</title><path class="cls-1" d="M489.16,824.53a13.55,13.55,0,1,1-13.55-13.32,13.44,13.44,0,0,1,13.55,13.32h0Zm0,0" transform="translate(-462.06 -811.21)"/><path class="cls-2" d="M485.18,824.06H480.1a2.22,2.22,0,0,0-2.24,2.19v2.17h0.83a2.3,2.3,0,0,1,2.31-2.27h3.36a2.29,2.29,0,0,1,2.31,2.27h0.75v-2.17A2.22,2.22,0,0,0,485.18,824.06Z" transform="translate(-462.06 -811.21)"/><path class="cls-2" d="M480.69,821.52a2,2,0,1,0,2-1.92A1.94,1.94,0,0,0,480.69,821.52Z" transform="translate(-462.06 -811.21)"/><path class="cls-2" d="M469.53,823.45a1.92,1.92,0,1,0-2-1.92A1.94,1.94,0,0,0,469.53,823.45Z" transform="translate(-462.06 -811.21)"/><path class="cls-2" d="M484.36,826.8H481a1.64,1.64,0,0,0-1.65,1.62H486A1.64,1.64,0,0,0,484.36,826.8Z" transform="translate(-462.06 -811.21)"/><path class="cls-2" d="M471.09,826.8h-3.36a1.64,1.64,0,0,0-1.65,1.62h6.66A1.64,1.64,0,0,0,471.09,826.8Z" transform="translate(-462.06 -811.21)"/><path class="cls-2" d="M476.15,817.47a0.84,0.84,0,0,0-1,.62l-1,4.29-2.34,1.68H467a2.22,2.22,0,0,0-2.24,2.19v2.17h0.67a2.29,2.29,0,0,1,2.31-2.27h3.36a2.33,2.33,0,0,1,1.18.32v-0.7l3.12-2.24a0.82,0.82,0,0,0,.32-0.48l1.06-4.59A0.82,0.82,0,0,0,476.15,817.47Z" transform="translate(-462.06 -811.21)"/></svg>