<svg id="Capa_1" data-name="Capa 1" xmlns="http://www.w3.org/2000/svg" viewBox="0 0 27.1 26.64"><defs><style>.cls-1{fill:#fff;}.cls-2{fill:#00487b;}</style></defs><title>biblioteca</title><path class="cls-1" d="M591.4,824.2a13.55,13.55,0,1,1-13.55-13.32A13.44,13.44,0,0,1,591.4,824.2h0Zm0,0" transform="translate(-564.3 -810.88)"/><path class="cls-2" d="M572.07,816.59h0a0.66,0.66,0,0,0-.47.19,0.65,0.65,0,0,0-.2.47v9.83a0.66,0.66,0,0,0,.67.66A8.34,8.34,0,0,1,578,829.9V819.61a0.62,0.62,0,0,0-.09-0.33c-1.47-2.33-4.3-2.68-5.86-2.69h0Zm0,0" transform="translate(-564.3 -810.88)"/><path class="cls-2" d="M585.67,827.08v-9.83a0.65,0.65,0,0,0-.2-0.47,0.66,0.66,0,0,0-.47-0.19h0c-1.56,0-4.38.36-5.86,2.69a0.62,0.62,0,0,0-.09.33V829.9a8.34,8.34,0,0,1,5.95-2.17,0.66,0.66,0,0,0,.67-0.66h0Zm0,0" transform="translate(-564.3 -810.88)"/><path class="cls-2" d="M587.19,818.86H586.7v8.22a1.69,1.69,0,0,1-1.7,1.67,7.48,7.48,0,0,0-5,1.69,16.32,16.32,0,0,1,7.06.13,0.67,0.67,0,0,0,.57-0.13,0.65,0.65,0,0,0,.25-0.51V819.51a0.66,0.66,0,0,0-.67-0.66h0Zm0,0" transform="translate(-564.3 -810.88)"/><path class="cls-2" d="M570.37,827.08v-8.22h-0.48a0.66,0.66,0,0,0-.67.66v10.41a0.65,0.65,0,0,0,.25.51,0.67,0.67,0,0,0,.57.13,16.33,16.33,0,0,1,7.06-.13,7.48,7.48,0,0,0-5-1.69,1.69,1.69,0,0,1-1.7-1.67h0Zm0,0" transform="translate(-564.3 -810.88)"/></svg>