<svg id="Capa_1" data-name="Capa 1" xmlns="http://www.w3.org/2000/svg" viewBox="0 0 27.1 26.64"><defs><style>.cls-1{fill:#fff;}.cls-2{fill:#00487b;}</style></defs><title>campus-virtual</title><path class="cls-1" d="M286.56,824.24A13.55,13.55,0,1,1,273,810.92a13.44,13.44,0,0,1,13.55,13.32h0Zm0,0" transform="translate(-259.46 -810.92)"/><path class="cls-2" d="M286.1,826.46a0.55,0.55,0,0,0-.41-0.16,0.54,0.54,0,0,0-.4.17,0.55,0.55,0,0,0-.15.27h-6.08v-1.4a0.17,0.17,0,0,0-.17-0.17h-3.28v-0.57a0.29,0.29,0,0,0-.57,0v0.57h-1.29a0.17,0.17,0,0,0-.17.17v1.21h-0.83v-2H273a0.19,0.19,0,1,0,0-.38h-0.19v-2.47h2.83a1.19,1.19,0,1,0,0-.28h-2.83v-5a0.24,0.24,0,0,0-.48,0v5h-2.58V821h0.8a0.34,0.34,0,1,0,0-.19h-0.8v-0.59a0.29,0.29,0,0,0-.57,0v0.59h-0.59v-1.23a0.14,0.14,0,0,0-.29,0v1.23h-1.89a0.09,0.09,0,1,0,0,.19h1.89v0.35h-3.51a0.14,0.14,0,1,0,0,.28h3.51v2.47H268a0.19,0.19,0,1,0,0,.38h0.25v2h-0.58v-2.48a0.19,0.19,0,0,0-.38,0v2.48h-0.84v-1.8a0.14,0.14,0,0,0-.29,0v1.91a0.17,0.17,0,0,0,.17.17h1v2.42a0.19,0.19,0,0,0,.38,0v-2.42h0.58v5.32a0.14,0.14,0,0,0,.29,0v-5.32h3.74v3.05a0.24,0.24,0,0,0,.48,0v-3.05h0.94a0.17,0.17,0,0,0,.17-0.17v-1.21H275v1.42a0.29,0.29,0,0,0,.57,0v-1.42h3.16v1.4a0.17,0.17,0,0,0,.17.17h6.2a0.52,0.52,0,0,0,.14.24,0.55,0.55,0,0,0,.4.16,0.55,0.55,0,0,0,.41-0.16,0.54,0.54,0,0,0,.16-0.39A0.55,0.55,0,0,0,286.1,826.46ZM268.54,821h0.59v0.35h-0.59V821Zm0,0.63h0.59v2.47h-0.59v-2.47Zm3.74,4.88h-3.74v-2h0.59v0.75a0.29,0.29,0,0,0,.57,0v-0.75h2.58v2Zm0-2.41h-2.58v-2.47h2.58v2.47Z" transform="translate(-259.46 -810.92)"/></svg>