<svg id="Capa_1" data-name="Capa 1" xmlns="http://www.w3.org/2000/svg" viewBox="0 0 27.1 26.64"><defs><style>.cls-1{fill:#fff;}.cls-2{fill:#00487b;}</style></defs><title>campus-presencial</title><path class="cls-1" d="M382.65,824.43a13.55,13.55,0,1,1-13.55-13.32,13.44,13.44,0,0,1,13.55,13.32h0Zm0,0" transform="translate(-355.54 -811.11)"/><path class="cls-2" d="M379.55,816.32h-20a0.34,0.34,0,0,0-.34.34v12.85a0.34,0.34,0,0,0,.34.34h8.95v1h-1.72v1.69h5.5v-1.69H370.6v-1h8.95a0.34,0.34,0,0,0,.34-0.34V816.66a0.34,0.34,0,0,0-.34-0.34h0Zm-7.91,15.22v0.34h-4.13v-0.34h1.72v-1.69h0.69v1.69h1.72Zm7.57-2.37H359.94V817h19.27v12.17Zm0,0" transform="translate(-355.54 -811.11)"/><path class="cls-2" d="M378.18,825.79h-4.34l0,0a2,2,0,0,0-.39-0.26l-1.59-1,0,0a1.48,1.48,0,0,0-.37-0.11l-0.13,0v-0.44l0,0a1.63,1.63,0,0,0,.41-0.33,5.17,5.17,0,0,0,.63-1.07,1,1,0,0,0,.64-0.8V820.9a0.62,0.62,0,0,0-.16-0.4,0.7,0.7,0,0,1-.18-0.45v-0.36a2.78,2.78,0,0,0-5.51,0V820a0.69,0.69,0,0,1-.18.45,0.63,0.63,0,0,0-.16.41v0.76a0.91,0.91,0,0,0,.47.69,3,3,0,0,0,1.26,1.4v0.45a2.58,2.58,0,0,1-.49.27l-0.2.1-1.61.92a2,2,0,0,0-.39.28l0,0h-1.76v2.37h14.11v-2.37Zm-10-.63,0.16-.08a1.19,1.19,0,0,0,.88-0.83v-0.9l-0.18-.1a2.41,2.41,0,0,1-1.13-1.2l0-.13-0.12-.07c-0.21-.14-0.25-0.21-0.26-0.19v-0.72h0a1.37,1.37,0,0,0,.34-0.88v-0.34a2.11,2.11,0,0,1,4.13,0V820a1.39,1.39,0,0,0,.34.89v0.72a0.56,0.56,0,0,1-.32.22l-0.17.05-0.06.17a4.13,4.13,0,0,1-.58,1l-0.25.18a1.5,1.5,0,0,0-.26.2l-0.09.1v0.84a0.68,0.68,0,0,0,.67.59l0.19,0,1.13,0.72h-5.52Zm9.29,2.32H364.76v-1h12.73v1Zm0,0" transform="translate(-355.54 -811.11)"/><path class="cls-2" d="M378.18,817.67h-2.06v2h2.06v-2ZM377.49,819H376.8v-0.68h0.69V819Zm0,0" transform="translate(-355.54 -811.11)"/><path class="cls-2" d="M363.38,825.79H361v2.37h2.41v-2.37Zm-0.69,1.69h-1v-1h1v1Zm0,0" transform="translate(-355.54 -811.11)"/></svg>