<svg id="Capa_1" data-name="Capa 1" xmlns="http://www.w3.org/2000/svg" viewBox="0 0 27.1 26.64"><defs><style>.cls-1{fill:#fff;}.cls-2{fill:#00487b;}.cls-3{fill:none;stroke:#00497a;stroke-miterlimit:10;stroke-width:0.39px;}</style></defs><title>periodico</title><path class="cls-1" d="M39.84,825.62A13.55,13.55,0,1,1,26.29,812.3a13.44,13.44,0,0,1,13.55,13.32h0Zm0,0" transform="translate(-12.74 -812.3)"/><g id="_Grupo_" data-name="&lt;Grupo&gt;"><g id="_Grupo_2" data-name="&lt;Grupo&gt;"><line id="_Trazado_" data-name="&lt;Trazado&gt;" class="cls-2" x1="6.61" y1="9.27" x2="10.2" y2="8.38"/><line id="_Trazado_2" data-name="&lt;Trazado&gt;" class="cls-2" x1="6.61" y1="10.84" x2="10.2" y2="9.96"/><line id="_Trazado_3" data-name="&lt;Trazado&gt;" class="cls-2" x1="6.61" y1="12.42" x2="10.2" y2="11.53"/><line id="_Trazado_4" data-name="&lt;Trazado&gt;" class="cls-2" x1="6.61" y1="13.99" x2="10.2" y2="13.11"/><line id="_Trazado_5" data-name="&lt;Trazado&gt;" class="cls-2" x1="6.61" y1="15.57" x2="10.2" y2="14.69"/><line id="_Trazado_6" data-name="&lt;Trazado&gt;" class="cls-2" x1="6.61" y1="17.14" x2="10.2" y2="16.26"/><line id="_Trazado_7" data-name="&lt;Trazado&gt;" class="cls-2" x1="6.61" y1="18.72" x2="10.2" y2="17.84"/></g><g id="_Grupo_3" data-name="&lt;Grupo&gt;"><line id="_Trazado_8" data-name="&lt;Trazado&gt;" class="cls-2" x1="18.98" y1="9.27" x2="22.56" y2="8.38"/><line id="_Trazado_9" data-name="&lt;Trazado&gt;" class="cls-2" x1="18.98" y1="10.84" x2="22.56" y2="9.96"/><line id="_Trazado_10" data-name="&lt;Trazado&gt;" class="cls-2" x1="18.98" y1="12.42" x2="22.56" y2="11.53"/><line id="_Trazado_11" data-name="&lt;Trazado&gt;" class="cls-2" x1="18.98" y1="13.99" x2="22.56" y2="13.11"/><line id="_Trazado_12" data-name="&lt;Trazado&gt;" class="cls-2" x1="18.98" y1="15.57" x2="22.56" y2="14.69"/><line id="_Trazado_13" data-name="&lt;Trazado&gt;" class="cls-2" x1="18.98" y1="17.14" x2="22.56" y2="16.26"/><line id="_Trazado_14" data-name="&lt;Trazado&gt;" class="cls-2" x1="18.98" y1="18.72" x2="22.56" y2="17.84"/></g><g id="_Grupo_4" data-name="&lt;Grupo&gt;"><polygon id="_Trazado_15" data-name="&lt;Trazado&gt;" class="cls-3" points="11.42 20.23 5.38 21.72 5.38 6.87 11.42 5.38 11.42 20.23"/><polygon id="_Trazado_16" data-name="&lt;Trazado&gt;" class="cls-2" points="17.59 21.68 11.42 20.23 11.42 5.38 17.46 6.87 17.59 21.68"/><polygon id="_Trazado_17" data-name="&lt;Trazado&gt;" class="cls-3" points="23.5 20.23 17.4 21.49 17.46 6.87 23.5 5.38 23.5 20.23"/></g></g></svg>