<svg id="Capa_1" data-name="Capa 1" xmlns="http://www.w3.org/2000/svg" viewBox="0 0 99.98 29.58"><defs><style>.cls-1{opacity:0.26;}.cls-2{fill:#f4d941;}.cls-3{fill:#004288;}.cls-4{fill:#333e6e;}.cls-5{fill:#002d63;}.cls-6{fill:#233668;}.cls-7{fill:#25428b;}.cls-8{fill:#fff;}</style></defs><title>aunar-logo</title><g class="cls-1"><rect class="cls-2" x="12.72" y="0.16" width="20.87" height="21.08"/><path class="cls-3" d="M203.2,1152.9h-15.9v-16h15.9v16Zm-15.72-.16H203v-15.68H187.48v15.68Z" transform="translate(-172.06 -1134.23)"/><path class="cls-3" d="M205.87,1155.56H184.63v-21.34h21.24v21.34Zm-20.89-.32h20.55v-20.69H185v20.69Z" transform="translate(-172.06 -1134.23)"/><rect class="cls-3" x="13.95" y="1.36" width="0.79" height="0.8"/><polygon class="cls-4" points="13.95 1.36 14.74 1.36 14.34 1.76 13.95 1.36 13.95 1.36"/><polygon class="cls-5" points="13.95 2.16 13.95 1.36 14.35 1.76 13.95 2.16 13.95 2.16"/><polygon class="cls-6" points="14.74 2.16 13.95 2.16 14.35 1.75 14.74 2.16 14.74 2.16"/><rect class="cls-3" x="31.65" y="1.36" width="0.79" height="0.8"/><polygon class="cls-4" points="31.65 1.36 32.44 1.36 32.04 1.76 31.65 1.36 31.65 1.36"/><polygon class="cls-5" points="31.65 2.15 31.65 1.36 32.05 1.76 31.65 2.15 31.65 2.15"/><polygon class="cls-6" points="32.44 2.15 31.65 2.15 32.05 1.75 32.44 2.15 32.44 2.15"/><path class="cls-3" d="M191.25,1136.51H191l-0.11-.29h-0.52l-0.11.29H190l0.5-1.27h0.28Zm-0.48-.5-0.18-.47-0.17.47h0.35Z" transform="translate(-172.06 -1134.23)"/><path class="cls-3" d="M191.39,1135.24h0.26v0.69a1.33,1.33,0,0,0,0,.21,0.21,0.21,0,0,0,.08.13,0.28,0.28,0,0,0,.17,0,0.26,0.26,0,0,0,.17,0,0.17,0.17,0,0,0,.07-0.11,1.46,1.46,0,0,0,0-.22v-0.7h0.26v0.67a1.75,1.75,0,0,1,0,.32,0.35,0.35,0,0,1-.08.16,0.39,0.39,0,0,1-.15.1,0.66,0.66,0,0,1-.25,0,0.73,0.73,0,0,1-.28,0,0.39,0.39,0,0,1-.15-0.11,0.34,0.34,0,0,1-.07-0.14,1.49,1.49,0,0,1,0-.32v-0.68Z" transform="translate(-172.06 -1134.23)"/><path class="cls-3" d="M193,1136.51v-1.06H192.6v-0.21h1v0.21h-0.38v1.06H193Z" transform="translate(-172.06 -1134.23)"/><path class="cls-3" d="M193.74,1135.88a0.8,0.8,0,0,1,.06-0.33,0.64,0.64,0,0,1,.12-0.18,0.51,0.51,0,0,1,.17-0.11,0.71,0.71,0,0,1,.28,0,0.61,0.61,0,0,1,.46.17,0.77,0.77,0,0,1,0,1,0.61,0.61,0,0,1-.45.17,0.62,0.62,0,0,1-.46-0.17A0.65,0.65,0,0,1,193.74,1135.88Zm0.27,0a0.47,0.47,0,0,0,.1.33,0.35,0.35,0,0,0,.51,0,0.48,0.48,0,0,0,.1-0.33,0.47,0.47,0,0,0-.1-0.33,0.33,0.33,0,0,0-.26-0.11,0.34,0.34,0,0,0-.26.11A0.48,0.48,0,0,0,194,1135.87Zm0.2-.71,0.12-.26h0.28l-0.24.26h-0.16Z" transform="translate(-172.06 -1134.23)"/><path class="cls-3" d="M195.2,1136.51v-1.27h0.25l0.53,0.85v-0.85h0.24v1.27H196l-0.52-.83v0.83H195.2Z" transform="translate(-172.06 -1134.23)"/><path class="cls-3" d="M196.44,1135.88a0.8,0.8,0,0,1,.06-0.33,0.64,0.64,0,0,1,.12-0.18,0.51,0.51,0,0,1,.17-0.11,0.71,0.71,0,0,1,.28,0,0.61,0.61,0,0,1,.46.17,0.77,0.77,0,0,1,0,1,0.6,0.6,0,0,1-.45.17,0.62,0.62,0,0,1-.46-0.17A0.66,0.66,0,0,1,196.44,1135.88Zm0.27,0a0.47,0.47,0,0,0,.1.33,0.35,0.35,0,0,0,.51,0,0.6,0.6,0,0,0,0-.66,0.33,0.33,0,0,0-.26-0.11,0.34,0.34,0,0,0-.26.11A0.48,0.48,0,0,0,196.71,1135.87Z" transform="translate(-172.06 -1134.23)"/><path class="cls-3" d="M197.89,1136.51v-1.27h0.39l0.23,0.87,0.23-.87h0.39v1.27H198.9v-1l-0.26,1h-0.25l-0.25-1v1h-0.24Z" transform="translate(-172.06 -1134.23)"/><path class="cls-3" d="M200.56,1136.51h-0.28l-0.11-.29h-0.52l-0.11.29h-0.28l0.5-1.27H200Zm-0.48-.5-0.18-.47-0.17.47h0.35Z" transform="translate(-172.06 -1134.23)"/><path class="cls-3" d="M191.25,1154.87H191l-0.11-.29h-0.52l-0.11.29H190l0.5-1.27h0.28Zm-0.48-.5-0.18-.47-0.17.47h0.35Z" transform="translate(-172.06 -1134.23)"/><path class="cls-3" d="M191.39,1153.59h0.26v0.69a1.5,1.5,0,0,0,0,.21,0.21,0.21,0,0,0,.08.13,0.28,0.28,0,0,0,.17,0,0.26,0.26,0,0,0,.17,0,0.18,0.18,0,0,0,.07-0.11,1.45,1.45,0,0,0,0-.22v-0.7h0.26v0.67a1.8,1.8,0,0,1,0,.32,0.34,0.34,0,0,1-.08.16,0.37,0.37,0,0,1-.15.1,0.66,0.66,0,0,1-.25,0,0.73,0.73,0,0,1-.28,0,0.4,0.4,0,0,1-.15-0.11,0.35,0.35,0,0,1-.07-0.14,1.49,1.49,0,0,1,0-.32v-0.68Z" transform="translate(-172.06 -1134.23)"/><path class="cls-3" d="M193,1154.87v-1.06H192.6v-0.22h1v0.22h-0.38v1.06H193Z" transform="translate(-172.06 -1134.23)"/><path class="cls-3" d="M193.74,1154.24a0.81,0.81,0,0,1,.06-0.33,0.63,0.63,0,0,1,.12-0.17,0.49,0.49,0,0,1,.17-0.11,0.72,0.72,0,0,1,.28-0.05,0.61,0.61,0,0,1,.46.18,0.77,0.77,0,0,1,0,1,0.6,0.6,0,0,1-.45.17,0.61,0.61,0,0,1-.46-0.17A0.65,0.65,0,0,1,193.74,1154.24Zm0.27,0a0.47,0.47,0,0,0,.1.33,0.35,0.35,0,0,0,.51,0,0.49,0.49,0,0,0,.1-0.33,0.47,0.47,0,0,0-.1-0.33,0.36,0.36,0,0,0-.52,0A0.47,0.47,0,0,0,194,1154.23Zm0.2-.71,0.12-.26h0.28l-0.24.26h-0.16Z" transform="translate(-172.06 -1134.23)"/><path class="cls-3" d="M195.2,1154.87v-1.27h0.25l0.53,0.85v-0.85h0.24v1.27H196l-0.52-.83v0.83H195.2Z" transform="translate(-172.06 -1134.23)"/><path class="cls-3" d="M196.44,1154.24a0.82,0.82,0,0,1,.06-0.33,0.64,0.64,0,0,1,.12-0.17,0.49,0.49,0,0,1,.17-0.11,0.72,0.72,0,0,1,.28-0.05,0.61,0.61,0,0,1,.46.18,0.77,0.77,0,0,1,0,1,0.6,0.6,0,0,1-.45.17,0.61,0.61,0,0,1-.46-0.17A0.66,0.66,0,0,1,196.44,1154.24Zm0.27,0a0.47,0.47,0,0,0,.1.33,0.35,0.35,0,0,0,.51,0,0.48,0.48,0,0,0,.1-0.33,0.47,0.47,0,0,0-.1-0.33,0.37,0.37,0,0,0-.52,0A0.48,0.48,0,0,0,196.71,1154.23Z" transform="translate(-172.06 -1134.23)"/><path class="cls-3" d="M197.89,1154.87v-1.27h0.39l0.23,0.87,0.23-.87h0.39v1.27H198.9v-1l-0.26,1h-0.25l-0.26-1v1h-0.24Z" transform="translate(-172.06 -1134.23)"/><path class="cls-3" d="M200.56,1154.87h-0.28l-0.11-.29h-0.52l-0.11.29h-0.28l0.5-1.27H200Zm-0.48-.5-0.18-.47-0.17.47h0.35Z" transform="translate(-172.06 -1134.23)"/><path class="cls-3" d="M204.86,1139.91v0.48a1,1,0,0,1,0,.25,0.45,0.45,0,0,1-.12.2,0.57,0.57,0,0,1-.21.12,0.9,0.9,0,0,1-.3,0,0.81,0.81,0,0,1-.27,0,0.57,0.57,0,0,1-.22-0.14,0.47,0.47,0,0,1-.1-0.18,0.81,0.81,0,0,1,0-.23v-0.49h1.27Zm-0.21.26h-0.84v0.2a0.74,0.74,0,0,0,0,.16,0.23,0.23,0,0,0,.05.11,0.26,0.26,0,0,0,.12.07,0.78,0.78,0,0,0,.23,0,0.72,0.72,0,0,0,.22,0,0.27,0.27,0,0,0,.12-0.07,0.25,0.25,0,0,0,.06-0.12,1.12,1.12,0,0,0,0-.21v-0.12Z" transform="translate(-172.06 -1134.23)"/><path class="cls-3" d="M203.6,1141.22h1.27v1h-0.21v-0.7h-0.28v0.65h-0.21v-0.65h-0.34v0.73H203.6v-1Z" transform="translate(-172.06 -1134.23)"/><path class="cls-3" d="M203.6,1142.94h1.27v0.26l-0.85.53h0.85V1144H203.6v-0.26l0.82-.52H203.6v-0.24Z" transform="translate(-172.06 -1134.23)"/><path class="cls-3" d="M203.6,1145.42v-0.29l0.29-.11v-0.52l-0.29-.11v-0.28l1.27,0.51v0.28Zm0.5-.48,0.47-.18-0.47-.18v0.35Z" transform="translate(-172.06 -1134.23)"/><path class="cls-3" d="M203.6,1145.56h1.27v0.55a1,1,0,0,1,0,.3,0.3,0.3,0,0,1-.12.15,0.36,0.36,0,0,1-.2.06,0.34,0.34,0,0,1-.24-0.09,0.42,0.42,0,0,1-.12-0.26,0.62,0.62,0,0,1-.11.14l-0.21.15-0.25.16v-0.31l0.28-.19,0.19-.14a0.19,0.19,0,0,0,.05-0.08,0.39,0.39,0,0,0,0-.13v-0.05H203.6v-0.26Zm0.73,0.26V1146a1.06,1.06,0,0,0,0,.24,0.14,0.14,0,0,0,.05.07,0.17,0.17,0,0,0,.1,0,0.15,0.15,0,0,0,.1,0,0.16,0.16,0,0,0,0-.1,1.89,1.89,0,0,0,0-.19v-0.21h-0.32Z" transform="translate(-172.06 -1134.23)"/><path class="cls-3" d="M203.6,1146.86h1.27v0.26H203.6v-0.26Z" transform="translate(-172.06 -1134.23)"/><path class="cls-3" d="M203.6,1147.37h1.27v0.25l-0.85.53h0.85v0.24H203.6v-0.26l0.82-.52H203.6v-0.24Zm1.34,0.33v-0.11h0a0.19,0.19,0,0,1,.14,0,0.15,0.15,0,0,1,0,.12,0.24,0.24,0,0,1,0,.06l0,0.1a0.29,0.29,0,0,0,0,.11,0.07,0.07,0,0,0,0,0l0.06,0v0.11a0.25,0.25,0,0,1-.17,0,0.15,0.15,0,0,1-.05-0.11,0.34,0.34,0,0,1,0-.06l0-.1a0.38,0.38,0,0,0,0-.12,0.06,0.06,0,0,0,0,0Z" transform="translate(-172.06 -1134.23)"/><path class="cls-3" d="M204.22,1148.63a0.81,0.81,0,0,1,.32.06,0.65,0.65,0,0,1,.17.12,0.51,0.51,0,0,1,.11.17,0.72,0.72,0,0,1,.05.28,0.62,0.62,0,0,1-.17.46,0.76,0.76,0,0,1-1,0,0.61,0.61,0,0,1-.17-0.46,0.62,0.62,0,0,1,.17-0.46A0.65,0.65,0,0,1,204.22,1148.63Zm0,0.27a0.47,0.47,0,0,0-.33.1,0.35,0.35,0,0,0,0,.52,0.48,0.48,0,0,0,.33.1,0.47,0.47,0,0,0,.32-0.1,0.37,0.37,0,0,0,0-.52A0.47,0.47,0,0,0,204.23,1148.9Z" transform="translate(-172.06 -1134.23)"/><path class="cls-3" d="M185.64,1149.89v-0.48a1,1,0,0,1,0-.25,0.43,0.43,0,0,1,.12-0.2,0.54,0.54,0,0,1,.21-0.12,0.92,0.92,0,0,1,.3,0,0.82,0.82,0,0,1,.27,0,0.57,0.57,0,0,1,.22.14,0.46,0.46,0,0,1,.1.18,0.78,0.78,0,0,1,0,.23v0.49h-1.27Zm0.21-.26h0.84v-0.2a0.73,0.73,0,0,0,0-.16,0.23,0.23,0,0,0-.05-0.11,0.27,0.27,0,0,0-.12-0.07,0.84,0.84,0,0,0-.23,0,0.77,0.77,0,0,0-.23,0,0.29,0.29,0,0,0-.12.08,0.25,0.25,0,0,0-.06.12,1.23,1.23,0,0,0,0,.22v0.12Z" transform="translate(-172.06 -1134.23)"/><path class="cls-3" d="M186.91,1148.58h-1.27v-1h0.21v0.7h0.28v-0.65h0.21v0.65h0.34v-0.72h0.21v1Z" transform="translate(-172.06 -1134.23)"/><path class="cls-3" d="M186.91,1146.86h-1.27v-0.26l0.85-.53h-0.85v-0.24h1.27v0.26l-0.82.52h0.82v0.24Z" transform="translate(-172.06 -1134.23)"/><path class="cls-3" d="M186.91,1144.38v0.29l-0.29.11v0.52l0.29,0.11v0.28l-1.27-.51v-0.28Zm-0.5.48-0.47.18,0.47,0.18v-0.35Z" transform="translate(-172.06 -1134.23)"/><path class="cls-3" d="M186.91,1144.24h-1.27v-0.55a0.94,0.94,0,0,1,0-.3,0.29,0.29,0,0,1,.12-0.15,0.36,0.36,0,0,1,.2-0.06,0.33,0.33,0,0,1,.24.09,0.41,0.41,0,0,1,.12.26,0.67,0.67,0,0,1,.11-0.14,1.4,1.4,0,0,1,.21-0.15l0.25-.16v0.31l-0.28.19-0.19.14a0.21,0.21,0,0,0-.05.08,0.45,0.45,0,0,0,0,.13V1144h0.53v0.26Zm-0.73-.26v-0.19a1.07,1.07,0,0,0,0-.24,0.16,0.16,0,0,0-.05-0.07,0.17,0.17,0,0,0-.1,0,0.15,0.15,0,0,0-.1,0,0.17,0.17,0,0,0,0,.1s0,0.08,0,.19v0.2h0.32Z" transform="translate(-172.06 -1134.23)"/><path class="cls-3" d="M186.91,1142.94h-1.27v-0.26h1.27v0.26Z" transform="translate(-172.06 -1134.23)"/><path class="cls-3" d="M185.57,1142.1v0.11h0a0.2,0.2,0,0,1-.14,0,0.15,0.15,0,0,1,0-.12,0.23,0.23,0,0,1,0-.06l0-.1a0.29,0.29,0,0,0,0-.11,0.07,0.07,0,0,0,0,0l-0.06,0v-0.11a0.25,0.25,0,0,1,.17,0,0.14,0.14,0,0,1,0,.11,0.43,0.43,0,0,1,0,.06l0,0.1a0.37,0.37,0,0,0,0,.12,0.06,0.06,0,0,0,0,0Zm1.34,0.33h-1.27v-0.25l0.85-.53h-0.85v-0.24h1.27v0.26l-0.82.52h0.82v0.24Z" transform="translate(-172.06 -1134.23)"/><path class="cls-3" d="M186.28,1141.17a0.79,0.79,0,0,1-.32-0.06,0.63,0.63,0,0,1-.17-0.12,0.49,0.49,0,0,1-.11-0.17,0.73,0.73,0,0,1-.05-0.28,0.62,0.62,0,0,1,.17-0.46,0.76,0.76,0,0,1,1,0,0.7,0.7,0,0,1,0,.92A0.64,0.64,0,0,1,186.28,1141.17Zm0-.27a0.47,0.47,0,0,0,.33-0.1,0.34,0.34,0,0,0,.11-0.26,0.33,0.33,0,0,0-.11-0.26,0.47,0.47,0,0,0-.33-0.1,0.46,0.46,0,0,0-.32.1,0.34,0.34,0,0,0-.11.26,0.34,0.34,0,0,0,.11.26A0.47,0.47,0,0,0,186.28,1140.9Z" transform="translate(-172.06 -1134.23)"/><rect class="cls-3" x="31.65" y="19.18" width="0.79" height="0.79"/><polygon class="cls-4" points="31.65 19.18 32.44 19.18 32.04 19.59 31.65 19.18 31.65 19.18"/><polygon class="cls-5" points="31.65 19.98 31.65 19.18 32.05 19.59 31.65 19.98 31.65 19.98"/><polygon class="cls-6" points="32.44 19.98 31.65 19.98 32.05 19.58 32.44 19.98 32.44 19.98"/><rect class="cls-7" x="13.95" y="19.19" width="0.79" height="0.79"/><polygon class="cls-4" points="13.95 19.19 14.74 19.19 14.34 19.59 13.95 19.19 13.95 19.19"/><polygon class="cls-5" points="13.95 19.98 13.95 19.19 14.35 19.59 13.95 19.98 13.95 19.98"/><polygon class="cls-6" points="14.74 19.98 13.95 19.98 14.35 19.58 14.74 19.98 14.74 19.98"/><path class="cls-3" d="M198.34,1139.7v2.72l-1.26-2.72h-3.67v2.11H194v5.85h-1.15v-8h-4v2.09h0.34v6.72a1.47,1.47,0,0,0,1.52,1.58h6.11v-1.42h0.63l0.57,1.42h3.47v-10.4h-3.24Zm-1.84,7.68v-1.27l0.51,1.27H196.5Z" transform="translate(-172.06 -1134.23)"/><path class="cls-8" d="M189.39,1148.52v-6.84H189v-1.87h3.73v8h1.38v-6.07h-0.63v-1.88H197l1.44,3.12v-3.12h3V1140h-1.8v5.85l-2.93-5.85h-2v1.52h0.63v6.78h-2.9V1140h-2.21v1.5h0.34v7.05a1.38,1.38,0,0,0,1,1.46h-0.78A1.36,1.36,0,0,1,189.39,1148.52Z" transform="translate(-172.06 -1134.23)"/><polygon class="cls-8" points="26.38 13.15 25.07 13.15 24.43 11.58 24.43 8.66 26.38 13.15"/><polygon class="cls-8" points="25.59 14.45 26.79 14.45 27.31 15.75 26.11 15.75 25.59 14.45"/><path class="cls-8" d="M212.72,1139.81h1.16l2.32,6.06H215l-0.47-1.25h-2.46l-0.49,1.25H210.4Zm0.59,1.61-0.81,2.08h1.61Z" transform="translate(-172.06 -1134.23)"/><path class="cls-8" d="M217,1139.81h1.15v3.92a2,2,0,0,0,.09.72,0.71,0.71,0,0,0,.29.33,0.91,0.91,0,0,0,.49.13,0.94,0.94,0,0,0,.52-0.14,0.74,0.74,0,0,0,.3-0.36,2.69,2.69,0,0,0,.08-0.83v-3.78h1.15v3.62a5.24,5.24,0,0,1-.1,1.27,1.94,1.94,0,0,1-1.06,1.17,2.26,2.26,0,0,1-.88.16,2.11,2.11,0,0,1-1.14-.3,1.76,1.76,0,0,1-.69-0.76,4,4,0,0,1-.21-1.54v-3.62Z" transform="translate(-172.06 -1134.23)"/><path class="cls-8" d="M221.86,1139.81h3.33v1.14h-1.1v4.93h-1.16v-4.93h-1.07v-1.14Z" transform="translate(-172.06 -1134.23)"/><path class="cls-8" d="M231,1140.59a3,3,0,0,0-2.2-.93,3.07,3.07,0,0,0-1.58.43,3.11,3.11,0,0,0-1.15,1.16,3.26,3.26,0,0,0,.48,3.84,3.13,3.13,0,0,0,4.46,0,3.08,3.08,0,0,0,.91-2.25A3.11,3.11,0,0,0,231,1140.59Zm-0.8,3.73a1.86,1.86,0,0,1-1.39.59,2,2,0,0,1-2-2,2,2,0,0,1,.57-1.49,2,2,0,0,1,2.81,0A2.15,2.15,0,0,1,230.22,1144.32Z" transform="translate(-172.06 -1134.23)"/><polygon class="cls-8" points="57.07 3.91 58.05 3.91 56.94 5.11 56.34 5.11 57.07 3.91"/><path class="cls-8" d="M233,1139.81h1.1l2.58,4v-4h1.15v6.06h-1.1l-2.58-4v4H233v-6.06Z" transform="translate(-172.06 -1134.23)"/><path class="cls-8" d="M242.07,1139.66a3,3,0,0,1,2.2.93,3.11,3.11,0,0,1,.92,2.27,3.08,3.08,0,0,1-.91,2.25,3.13,3.13,0,0,1-4.46,0,3.26,3.26,0,0,1-.48-3.84,3.11,3.11,0,0,1,1.15-1.16A3.07,3.07,0,0,1,242.07,1139.66Zm0,1.13a1.89,1.89,0,0,0-1.41.58,2.05,2.05,0,0,0-.57,1.49,2,2,0,0,0,2,2,1.87,1.87,0,0,0,1.39-.59,2.15,2.15,0,0,0,0-2.93A1.88,1.88,0,0,0,242.06,1140.79Z" transform="translate(-172.06 -1134.23)"/><path class="cls-8" d="M246.86,1139.81H248l1.4,4.23,1.41-4.23h1.12l1,6.06H251.8l-0.65-3.83-1.28,3.83h-1l-1.27-3.83-0.66,3.83h-1.12Z" transform="translate(-172.06 -1134.23)"/><path class="cls-8" d="M255.66,1139.81h1.16l2.32,6.06h-1.19l-0.47-1.25H255l-0.49,1.25h-1.19Zm0.59,1.61-0.81,2.08h1.61Z" transform="translate(-172.06 -1134.23)"/><path class="cls-8" d="M212.41,1135.84l-0.17.13a0.92,0.92,0,0,0-.34-0.28,1,1,0,0,0-.44-0.1,1,1,0,0,0-.48.13,0.9,0.9,0,0,0-.34.34,0.94,0.94,0,0,0-.12.48,0.9,0.9,0,0,0,.27.67,0.94,0.94,0,0,0,.69.27,1,1,0,0,0,.76-0.36l0.17,0.13a1.09,1.09,0,0,1-.41.32,1.27,1.27,0,0,1-.54.11,1.13,1.13,0,0,1-.9-0.38,1.16,1.16,0,0,1-.28-0.78,1.09,1.09,0,0,1,.34-0.81,1.15,1.15,0,0,1,.84-0.33,1.22,1.22,0,0,1,.55.12A1.06,1.06,0,0,1,212.41,1135.84Z" transform="translate(-172.06 -1134.23)"/><path class="cls-8" d="M214.05,1135.38a1.12,1.12,0,0,1,.83.33,1.15,1.15,0,1,1-2,.83,1.17,1.17,0,0,1,.15-0.58A1.12,1.12,0,0,1,214.05,1135.38Zm0,0.21a0.89,0.89,0,0,0-.46.13,0.91,0.91,0,0,0-.34.34,1,1,0,0,0-.12.48,0.89,0.89,0,0,0,.27.66,0.88,0.88,0,0,0,.65.27,0.93,0.93,0,0,0,.47-0.12,0.88,0.88,0,0,0,.34-0.34,1,1,0,0,0,.12-0.48,0.94,0.94,0,0,0-.12-0.47A0.95,0.95,0,0,0,214.06,1135.59Z" transform="translate(-172.06 -1134.23)"/><path class="cls-8" d="M215.83,1135.43h0.43a2.58,2.58,0,0,1,.49,0,0.55,0.55,0,0,1,.32.19,0.55,0.55,0,0,1,.12.36,0.58,0.58,0,0,1-.08.31,0.53,0.53,0,0,1-.24.21,1.09,1.09,0,0,1-.43.07l0.78,1H217l-0.78-1H216v1h-0.22v-2.19Zm0.22,0.22v0.74h0.37a0.93,0.93,0,0,0,.32,0,0.33,0.33,0,0,0,.16-0.13,0.37,0.37,0,0,0,.06-0.2,0.36,0.36,0,0,0-.06-0.2,0.34,0.34,0,0,0-.16-0.13,1,1,0,0,0-.32,0H216Z" transform="translate(-172.06 -1134.23)"/><path class="cls-8" d="M217.83,1135.43h0.43a2.51,2.51,0,0,1,.5,0,0.55,0.55,0,0,1,.3.19,0.55,0.55,0,0,1,.12.36,0.55,0.55,0,0,1-.12.36,0.56,0.56,0,0,1-.32.19,2.76,2.76,0,0,1-.55,0H218v1h-0.22v-2.19Zm0.22,0.22v0.74h0.37a1,1,0,0,0,.33,0,0.33,0.33,0,0,0,.16-0.13,0.37,0.37,0,0,0,0-.41,0.34,0.34,0,0,0-.15-0.13,1,1,0,0,0-.32,0H218Z" transform="translate(-172.06 -1134.23)"/><path class="cls-8" d="M220.83,1135.38a1.12,1.12,0,0,1,.83.33,1.15,1.15,0,1,1-2,.83,1.17,1.17,0,0,1,.15-0.58A1.12,1.12,0,0,1,220.83,1135.38Zm0,0.21a0.88,0.88,0,0,0-.46.13,0.91,0.91,0,0,0-.34.34,1,1,0,0,0-.12.48,0.9,0.9,0,0,0,.27.66,0.88,0.88,0,0,0,.65.27,0.92,0.92,0,0,0,.47-0.12,0.88,0.88,0,0,0,.34-0.34,1,1,0,0,0,.12-0.48,0.93,0.93,0,0,0-.12-0.47A0.94,0.94,0,0,0,220.84,1135.59Z" transform="translate(-172.06 -1134.23)"/><path class="cls-8" d="M222.61,1135.43H223a2.59,2.59,0,0,1,.49,0,0.55,0.55,0,0,1,.32.19,0.55,0.55,0,0,1,.12.36,0.58,0.58,0,0,1-.08.31,0.52,0.52,0,0,1-.24.21,1.09,1.09,0,0,1-.43.07l0.78,1h-0.27l-0.78-1h-0.12v1h-0.22v-2.19Zm0.22,0.22v0.74h0.37a0.93,0.93,0,0,0,.32,0,0.33,0.33,0,0,0,.16-0.13,0.37,0.37,0,0,0,.06-0.2,0.35,0.35,0,0,0-.06-0.2,0.33,0.33,0,0,0-.16-0.13,1,1,0,0,0-.32,0h-0.38Z" transform="translate(-172.06 -1134.23)"/><path class="cls-8" d="M225.5,1135.43l1,2.19h-0.23l-0.34-.72H225l-0.34.72h-0.24l1-2.19h0.05Zm0,0.47-0.37.79h0.74Z" transform="translate(-172.06 -1134.23)"/><path class="cls-8" d="M229.05,1135.84l-0.17.13a0.92,0.92,0,0,0-.34-0.28,1,1,0,0,0-.44-0.1,1,1,0,0,0-.48.13,0.9,0.9,0,0,0-.34.34,0.93,0.93,0,0,0-.12.48,0.9,0.9,0,0,0,.27.67,0.94,0.94,0,0,0,.69.27,1,1,0,0,0,.76-0.36l0.17,0.13a1.11,1.11,0,0,1-.41.32,1.27,1.27,0,0,1-.54.11,1.13,1.13,0,0,1-.9-0.38,1.16,1.16,0,0,1-.28-0.78,1.09,1.09,0,0,1,.34-0.81,1.15,1.15,0,0,1,.84-0.33,1.21,1.21,0,0,1,.55.12A1.07,1.07,0,0,1,229.05,1135.84Z" transform="translate(-172.06 -1134.23)"/><path class="cls-8" d="M229.63,1135.43h0.22v2.19h-0.22v-2.19Z" transform="translate(-172.06 -1134.23)"/><path class="cls-8" d="M231.55,1135.38a1.12,1.12,0,0,1,.83.33,1.16,1.16,0,0,1,0,1.63,1.09,1.09,0,0,1-.81.34,1.11,1.11,0,0,1-.82-0.33,1.1,1.1,0,0,1-.33-0.81,1.17,1.17,0,0,1,.15-0.58A1.12,1.12,0,0,1,231.55,1135.38Zm0,0.21a0.89,0.89,0,0,0-.46.13,0.91,0.91,0,0,0-.34.34,1,1,0,0,0-.12.48,0.89,0.89,0,0,0,.27.66,0.88,0.88,0,0,0,.65.27,0.92,0.92,0,0,0,.47-0.12,0.89,0.89,0,0,0,.34-0.34,1,1,0,0,0,.12-0.48,0.94,0.94,0,0,0-.12-0.47A0.95,0.95,0,0,0,231.56,1135.59Zm0.11-.79H232l-0.44.46h-0.2Z" transform="translate(-172.06 -1134.23)"/><path class="cls-8" d="M233.32,1137.62v-2.19h0l1.45,1.68v-1.68H235v2.19h0l-1.44-1.66v1.66h-0.22Z" transform="translate(-172.06 -1134.23)"/><path class="cls-8" d="M236.75,1135.43H237v1.32c0,0.16,0,.26,0,0.29a0.5,0.5,0,0,0,.08.22,0.45,0.45,0,0,0,.18.15,0.56,0.56,0,0,0,.25.06,0.48,0.48,0,0,0,.37-0.17,0.52,0.52,0,0,0,.1-0.2,1.61,1.61,0,0,0,0-.34v-1.32h0.22v1.32a1.62,1.62,0,0,1-.06.47,0.63,0.63,0,0,1-.23.31,0.64,0.64,0,0,1-.41.13,0.8,0.8,0,0,1-.45-0.13,0.61,0.61,0,0,1-.25-0.33,1.77,1.77,0,0,1,0-.46v-1.32Z" transform="translate(-172.06 -1134.23)"/><path class="cls-8" d="M238.9,1137.62v-2.19h0l1.45,1.68v-1.68h0.21v2.19h0l-1.44-1.66v1.66H238.9Z" transform="translate(-172.06 -1134.23)"/><path class="cls-8" d="M241.28,1135.43h0.22v2.19h-0.22v-2.19Z" transform="translate(-172.06 -1134.23)"/><path class="cls-8" d="M242,1135.43h0.24l0.72,1.69,0.73-1.69h0.24l-0.95,2.19h0Z" transform="translate(-172.06 -1134.23)"/><path class="cls-8" d="M244.47,1135.43h1.25v0.22h-1v0.69h1v0.21h-1v0.86h1v0.21h-1.24v-2.19Z" transform="translate(-172.06 -1134.23)"/><path class="cls-8" d="M246.28,1135.43h0.43a2.58,2.58,0,0,1,.49,0,0.56,0.56,0,0,1,.32.19,0.55,0.55,0,0,1,.12.36,0.59,0.59,0,0,1-.08.31,0.52,0.52,0,0,1-.24.21,1.08,1.08,0,0,1-.43.07l0.78,1H247.4l-0.78-1H246.5v1h-0.22v-2.19Zm0.22,0.22v0.74h0.37a0.94,0.94,0,0,0,.32,0,0.33,0.33,0,0,0,.16-0.13,0.37,0.37,0,0,0,.06-0.2,0.36,0.36,0,0,0-.06-0.2,0.33,0.33,0,0,0-.15-0.13,1,1,0,0,0-.32,0H246.5Z" transform="translate(-172.06 -1134.23)"/><path class="cls-8" d="M248.05,1137.22l0.19-.11a0.55,0.55,0,0,0,.45.36,0.44,0.44,0,0,0,.21-0.05,0.37,0.37,0,0,0,.15-0.14,0.36,0.36,0,0,0,.05-0.18,0.37,0.37,0,0,0-.07-0.22,1.76,1.76,0,0,0-.37-0.35,2,2,0,0,1-.34-0.3,0.56,0.56,0,0,1-.11-0.34,0.52,0.52,0,0,1,.07-0.26,0.49,0.49,0,0,1,.19-0.18,0.57,0.57,0,0,1,.56,0,1,1,0,0,1,.28.28l-0.18.14a0.86,0.86,0,0,0-.21-0.22,0.35,0.35,0,0,0-.19-0.05,0.3,0.3,0,0,0-.22.08,0.26,0.26,0,0,0-.08.2,0.34,0.34,0,0,0,0,.14,0.5,0.5,0,0,0,.11.15l0.28,0.22a1.56,1.56,0,0,1,.39.37,0.6,0.6,0,0,1,.1.33,0.56,0.56,0,0,1-.18.41,0.6,0.6,0,0,1-.44.18,0.64,0.64,0,0,1-.36-0.11A1,1,0,0,1,248.05,1137.22Z" transform="translate(-172.06 -1134.23)"/><path class="cls-8" d="M249.93,1135.43h0.22v2.19h-0.22v-2.19Z" transform="translate(-172.06 -1134.23)"/><path class="cls-8" d="M250.6,1135.65v-0.22h1.19v0.22h-0.49v2h-0.22v-2H250.6Z" transform="translate(-172.06 -1134.23)"/><path class="cls-8" d="M252.92,1135.43l1,2.19H253.7l-0.34-.72h-0.94l-0.34.72h-0.24l1-2.19h0.05Zm0,0.47-0.37.79h0.74Z" transform="translate(-172.06 -1134.23)"/><path class="cls-8" d="M254.46,1135.43h0.43a2.57,2.57,0,0,1,.49,0,0.55,0.55,0,0,1,.32.19,0.55,0.55,0,0,1,.12.36,0.6,0.6,0,0,1-.08.31,0.53,0.53,0,0,1-.24.21,1.09,1.09,0,0,1-.43.07l0.78,1h-0.27l-0.78-1h-0.12v1h-0.22v-2.19Zm0.22,0.22v0.74h0.37a0.92,0.92,0,0,0,.32,0,0.33,0.33,0,0,0,.16-0.13,0.37,0.37,0,0,0,.06-0.2,0.35,0.35,0,0,0-.06-0.2,0.33,0.33,0,0,0-.16-0.13,1,1,0,0,0-.32,0h-0.38Z" transform="translate(-172.06 -1134.23)"/><path class="cls-8" d="M256.43,1135.43h0.22v2.19h-0.22v-2.19Z" transform="translate(-172.06 -1134.23)"/><path class="cls-8" d="M258.21,1135.43l1,2.19H259l-0.34-.72h-0.94l-0.34.72h-0.24l1-2.19h0.05Zm0,0.47-0.37.79h0.74Z" transform="translate(-172.06 -1134.23)"/><path class="cls-8" d="M210.32,1154.33v-6.63h1.37a6.93,6.93,0,0,1,2.15.24,2.87,2.87,0,0,1,1.5,1.17,3.59,3.59,0,0,1,.54,2,3.51,3.51,0,0,1-.43,1.75,2.76,2.76,0,0,1-1.11,1.12,4.17,4.17,0,0,1-1.92.36h-2.1Zm0.63-.63h0.76a7.09,7.09,0,0,0,1.9-.17,2.19,2.19,0,0,0,1.17-.88,2.71,2.71,0,0,0,.43-1.55,2.85,2.85,0,0,0-.46-1.64,2.32,2.32,0,0,0-1.29-.93,7.74,7.74,0,0,0-2-.19H211v5.36Z" transform="translate(-172.06 -1134.23)"/><path class="cls-8" d="M217.16,1147.69h3.78v0.65h-3.12v2.08h3.09v0.65h-3.09v2.61h3.09v0.65h-3.75v-6.63Z" transform="translate(-172.06 -1134.23)"/><path class="cls-8" d="M224.62,1154.33v-6.63h0.14l4.39,5.09v-5.09h0.65v6.63h-0.15l-4.35-5v5h-0.68Z" transform="translate(-172.06 -1134.23)"/><path class="cls-8" d="M234.09,1147.69l3.07,6.63h-0.71l-1-2.18h-2.84l-1,2.18h-0.74l3.11-6.63h0.16ZM234,1149.1l-1.13,2.4h2.25Z" transform="translate(-172.06 -1134.23)"/><path class="cls-8" d="M238.22,1147.69h1.31a7.89,7.89,0,0,1,1.49.09,1.69,1.69,0,0,1,1,.58,1.67,1.67,0,0,1,.37,1.1,1.78,1.78,0,0,1-.25,1,1.59,1.59,0,0,1-.72.62,3.32,3.32,0,0,1-1.3.21l2.37,3.08h-0.81l-2.37-3.08h-0.37v3.08h-0.66v-6.63Zm0.66,0.65v2.26H240a2.82,2.82,0,0,0,1-.13,1,1,0,0,0,.49-0.4,1.13,1.13,0,0,0,.18-0.62,1.08,1.08,0,0,0-.18-0.61,1,1,0,0,0-.47-0.39,2.86,2.86,0,0,0-1-.12h-1.16Z" transform="translate(-172.06 -1134.23)"/><path class="cls-8" d="M243.66,1147.69h0.66v6.63h-0.66v-6.63Z" transform="translate(-172.06 -1134.23)"/><polygon class="cls-8" points="73.78 20.1 73.78 13.46 73.92 13.46 78.3 18.55 78.3 13.46 78.95 13.46 78.95 20.1 78.81 20.1 74.46 15.08 74.46 20.1 73.78 20.1"/><path class="cls-8" d="M249.76,1146.69l0.31,0.44a2.37,2.37,0,0,1-.55.32,1.35,1.35,0,0,1-.47.08,1.51,1.51,0,0,1-.66-0.17l-0.37-.17a0.79,0.79,0,0,0-.23,0,0.81,0.81,0,0,0-.3.06,2.14,2.14,0,0,0-.41.25l-0.3-.46a1.32,1.32,0,0,1,1-.44,1.68,1.68,0,0,1,.68.19,1.54,1.54,0,0,0,.6.18A1.51,1.51,0,0,0,249.76,1146.69Z" transform="translate(-172.06 -1134.23)"/><path class="cls-8" d="M255.76,1147.53a3.41,3.41,0,0,1,2.51,1,3.54,3.54,0,0,1,0,4.95,3.32,3.32,0,0,1-2.45,1,3.45,3.45,0,0,1-3.48-3.46,3.55,3.55,0,0,1,.46-1.77A3.39,3.39,0,0,1,255.76,1147.53Zm0,0.64a2.7,2.7,0,0,0-1.39.38,2.76,2.76,0,0,0-1,1A2.89,2.89,0,0,0,253,1151a2.71,2.71,0,0,0,.81,2,2.67,2.67,0,0,0,2,.81,2.81,2.81,0,0,0,1.42-.37,2.67,2.67,0,0,0,1-1,2.89,2.89,0,0,0,.37-1.44,2.82,2.82,0,0,0-.37-1.43,2.74,2.74,0,0,0-1-1A2.77,2.77,0,0,0,255.79,1148.17Z" transform="translate(-172.06 -1134.23)"/><path class="cls-8" d="M172.59,1160.16h0.59l-0.43,2.26h1.06l-0.1.52h-1.65Z" transform="translate(-172.06 -1134.23)"/><path class="cls-8" d="M175.35,1162.95c0-.12,0-0.26,0-0.4h0a0.76,0.76,0,0,1-.68.45,0.62,0.62,0,0,1-.61-0.7,1.36,1.36,0,0,1,1.44-1.41,2.35,2.35,0,0,1,.66.1L176,1162a4.92,4.92,0,0,0-.08.91h-0.54Zm0.17-1.6-0.16,0a0.82,0.82,0,0,0-.66.85,0.27,0.27,0,0,0,.24.33,0.7,0.7,0,0,0,.49-0.7Z" transform="translate(-172.06 -1134.23)"/><path class="cls-8" d="M178,1160.68h-0.73l0.1-.52h2.05l-0.1.52H178.6l-0.43,2.26h-0.59Z" transform="translate(-172.06 -1134.23)"/><path class="cls-8" d="M180.6,1162.83a1.72,1.72,0,0,1-.75.16,0.78,0.78,0,0,1-.87-0.85,1.21,1.21,0,0,1,1.17-1.25,0.62,0.62,0,0,1,.7.61c0,0.51-.5.7-1.3,0.68a0.45,0.45,0,0,0,.07.21,0.46,0.46,0,0,0,.39.16,1.25,1.25,0,0,0,.56-0.13Zm-0.52-1.51a0.51,0.51,0,0,0-.48.42c0.46,0,.69-0.06.69-0.25A0.19,0.19,0,0,0,180.08,1161.32Z" transform="translate(-172.06 -1134.23)"/><path class="cls-8" d="M182.47,1162.88a1.37,1.37,0,0,1-.57.11,0.78,0.78,0,0,1-.84-0.83,1.26,1.26,0,0,1,1.31-1.28,1.25,1.25,0,0,1,.41.07l-0.15.46a0.68,0.68,0,0,0-.27,0,0.7,0.7,0,0,0-.68.74,0.38,0.38,0,0,0,.39.42,1,1,0,0,0,.4-0.08v0.45Z" transform="translate(-172.06 -1134.23)"/><path class="cls-8" d="M182.78,1162.95l0.25-1.36c0.05-.26.08-0.47,0.11-0.66h0.52l0,0.33h0a0.85,0.85,0,0,1,.7-0.38,0.49,0.49,0,0,1,.52.55,2.49,2.49,0,0,1,0,.34l-0.22,1.17H184l0.21-1.12a1.32,1.32,0,0,0,0-.22,0.2,0.2,0,0,0-.2-0.24,0.72,0.72,0,0,0-.5.69l-0.17.9h-0.59Z" transform="translate(-172.06 -1134.23)"/><path class="cls-8" d="M187.21,1161.71A1.2,1.2,0,0,1,186,1163a0.8,0.8,0,0,1-.85-0.84,1.21,1.21,0,0,1,1.2-1.28A0.8,0.8,0,0,1,187.21,1161.71Zm-1.44.43a0.33,0.33,0,0,0,.32.39,0.77,0.77,0,0,0,.5-0.82,0.33,0.33,0,0,0-.32-0.38A0.76,0.76,0,0,0,185.78,1162.15Z" transform="translate(-172.06 -1134.23)"/><path class="cls-8" d="M187.39,1162.95l0.56-2.93h0.59l-0.56,2.93h-0.59Z" transform="translate(-172.06 -1134.23)"/><path class="cls-8" d="M190.59,1161.71a1.2,1.2,0,0,1-1.2,1.28,0.8,0.8,0,0,1-.85-0.84,1.21,1.21,0,0,1,1.2-1.28A0.8,0.8,0,0,1,190.59,1161.71Zm-1.44.43a0.33,0.33,0,0,0,.32.39,0.77,0.77,0,0,0,.5-0.82,0.33,0.33,0,0,0-.32-0.38A0.76,0.76,0,0,0,189.16,1162.15Z" transform="translate(-172.06 -1134.23)"/><path class="cls-8" d="M190.92,1163.23a1.25,1.25,0,0,0,.52.11,0.57,0.57,0,0,0,.6-0.54l0-.17h0a0.68,0.68,0,0,1-.57.3,0.66,0.66,0,0,1-.64-0.72,1.29,1.29,0,0,1,1.35-1.33,2,2,0,0,1,.74.14l-0.3,1.66a1.47,1.47,0,0,1-.42.9,1.24,1.24,0,0,1-.78.23,1.46,1.46,0,0,1-.66-0.13Zm1.38-1.85a0.58,0.58,0,0,0-.21,0,0.73,0.73,0,0,0-.61.78,0.3,0.3,0,0,0,.27.36,0.59,0.59,0,0,0,.45-0.56Z" transform="translate(-172.06 -1134.23)"/><path class="cls-8" d="M193.08,1162.95l0.38-2H194l-0.38,2h-0.59Zm1.44-2.89-0.53.63h-0.43l0.39-.63h0.58Z" transform="translate(-172.06 -1134.23)"/><path class="cls-8" d="M195.48,1162.95c0-.12,0-0.26,0-0.4h0a0.76,0.76,0,0,1-.68.45,0.62,0.62,0,0,1-.61-0.7,1.36,1.36,0,0,1,1.44-1.41,2.35,2.35,0,0,1,.66.1L196.1,1162a4.91,4.91,0,0,0-.08.91h-0.54Zm0.17-1.6-0.16,0a0.82,0.82,0,0,0-.66.85,0.27,0.27,0,0,0,.24.33,0.7,0.7,0,0,0,.49-0.7Z" transform="translate(-172.06 -1134.23)"/><path class="cls-8" d="M198.87,1162.83a1.72,1.72,0,0,1-.75.16,0.78,0.78,0,0,1-.87-0.85,1.21,1.21,0,0,1,1.17-1.25,0.62,0.62,0,0,1,.7.61c0,0.51-.5.7-1.3,0.68a0.45,0.45,0,0,0,.07.21,0.46,0.46,0,0,0,.39.16,1.25,1.25,0,0,0,.56-0.13Zm-0.52-1.51a0.51,0.51,0,0,0-.48.42c0.46,0,.69-0.06.69-0.25A0.19,0.19,0,0,0,198.34,1161.32Z" transform="translate(-172.06 -1134.23)"/><path class="cls-8" d="M199.32,1162.41a1.28,1.28,0,0,0,.52.14,0.21,0.21,0,0,0,.25-0.18,0.32,0.32,0,0,0-.25-0.26,0.64,0.64,0,0,1-.42-0.54,0.77,0.77,0,0,1,.88-0.7,1.15,1.15,0,0,1,.52.1l-0.14.42a1,1,0,0,0-.4-0.09,0.21,0.21,0,0,0-.26.18,0.33,0.33,0,0,0,.24.23,0.66,0.66,0,0,1,.45.55,0.78,0.78,0,0,1-.92.71,1.17,1.17,0,0,1-.61-0.16Z" transform="translate(-172.06 -1134.23)"/><path class="cls-8" d="M203.38,1162.83a1.72,1.72,0,0,1-.75.16,0.78,0.78,0,0,1-.87-0.85,1.21,1.21,0,0,1,1.17-1.25,0.62,0.62,0,0,1,.7.61c0,0.51-.5.7-1.3,0.68a0.45,0.45,0,0,0,.07.21,0.46,0.46,0,0,0,.39.16,1.25,1.25,0,0,0,.56-0.13Zm-0.52-1.51a0.51,0.51,0,0,0-.48.42c0.46,0,.69-0.06.69-0.25A0.19,0.19,0,0,0,202.86,1161.32Z" transform="translate(-172.06 -1134.23)"/><path class="cls-8" d="M203.76,1162.95l0.56-2.93h0.59l-0.56,2.93h-0.59Z" transform="translate(-172.06 -1134.23)"/><path class="cls-8" d="M207.69,1162.87a1.86,1.86,0,0,1-.73.12,1.12,1.12,0,0,1-1.22-1.18,1.62,1.62,0,0,1,.7-1.39,1.73,1.73,0,0,1,1-.29,1.42,1.42,0,0,1,.61.12l-0.16.48a1.27,1.27,0,0,0-.5-0.09,1,1,0,0,0-.63.21,1.15,1.15,0,0,0-.38.9,0.67,0.67,0,0,0,.73.74,1.41,1.41,0,0,0,.52-0.09Z" transform="translate(-172.06 -1134.23)"/><path class="cls-8" d="M209.26,1162.95c0-.12,0-0.26,0-0.4h0a0.76,0.76,0,0,1-.68.45,0.62,0.62,0,0,1-.61-0.7,1.36,1.36,0,0,1,1.44-1.41,2.35,2.35,0,0,1,.66.1l-0.21,1.06a4.91,4.91,0,0,0-.08.91h-0.54Zm0.17-1.6-0.16,0a0.82,0.82,0,0,0-.66.85,0.27,0.27,0,0,0,.24.33,0.7,0.7,0,0,0,.49-0.7Z" transform="translate(-172.06 -1134.23)"/><path class="cls-8" d="M210.23,1162.95l0.25-1.36c0-.26.08-0.47,0.1-0.66h0.5l0,0.33h0a0.83,0.83,0,0,1,.69-0.38,0.43,0.43,0,0,1,.48.38,0.83,0.83,0,0,1,.69-0.38,0.47,0.47,0,0,1,.49.54,2.8,2.8,0,0,1,0,.35l-0.22,1.18h-0.57l0.2-1.11a1.24,1.24,0,0,0,0-.24,0.2,0.2,0,0,0-.2-0.24,0.71,0.71,0,0,0-.47.67l-0.17.92h-0.57l0.21-1.11a1.65,1.65,0,0,0,0-.23,0.2,0.2,0,0,0-.19-0.25,0.72,0.72,0,0,0-.48.68l-0.16.91h-0.57Z" transform="translate(-172.06 -1134.23)"/><path class="cls-8" d="M213.64,1162.95l0.38-2h0.59l-0.38,2h-0.59Zm0.75-2.27a0.27,0.27,0,0,1-.28-0.29,0.33,0.33,0,0,1,.34-0.34,0.28,0.28,0,0,1,.3.29,0.33,0.33,0,0,1-.35.33h0Z" transform="translate(-172.06 -1134.23)"/><path class="cls-8" d="M214.72,1162.95l0.25-1.36c0.05-.26.08-0.47,0.11-0.66h0.52l0,0.33h0a0.85,0.85,0,0,1,.7-0.38,0.49,0.49,0,0,1,.52.55,2.49,2.49,0,0,1,0,.34l-0.22,1.17H216l0.21-1.12a1.32,1.32,0,0,0,0-.22,0.2,0.2,0,0,0-.2-0.24,0.72,0.72,0,0,0-.5.69l-0.17.9h-0.59Z" transform="translate(-172.06 -1134.23)"/><path class="cls-8" d="M219.15,1161.71A1.2,1.2,0,0,1,218,1163a0.8,0.8,0,0,1-.85-0.84,1.21,1.21,0,0,1,1.2-1.28A0.8,0.8,0,0,1,219.15,1161.71Zm-1.44.43a0.33,0.33,0,0,0,.32.39,0.77,0.77,0,0,0,.5-0.82,0.33,0.33,0,0,0-.32-0.38A0.76,0.76,0,0,0,217.72,1162.15Z" transform="translate(-172.06 -1134.23)"/><path class="cls-8" d="M220.08,1162.95l0.55-2.93h0.59l-0.23,1.17h0a0.84,0.84,0,0,1,.64-0.31,0.48,0.48,0,0,1,.5.54,2.42,2.42,0,0,1,0,.36l-0.22,1.16h-0.59l0.21-1.11a1.24,1.24,0,0,0,0-.25,0.19,0.19,0,0,0-.2-0.23,0.69,0.69,0,0,0-.49.66l-0.18.92h-0.59Z" transform="translate(-172.06 -1134.23)"/><path class="cls-8" d="M223.71,1162.95c0-.12,0-0.26,0-0.4h0a0.76,0.76,0,0,1-.68.45,0.62,0.62,0,0,1-.61-0.7,1.36,1.36,0,0,1,1.44-1.41,2.35,2.35,0,0,1,.66.1l-0.21,1.06a4.93,4.93,0,0,0-.08.91h-0.54Zm0.17-1.6-0.16,0a0.82,0.82,0,0,0-.66.85,0.27,0.27,0,0,0,.24.33,0.7,0.7,0,0,0,.49-0.7Z" transform="translate(-172.06 -1134.23)"/><path class="cls-8" d="M226.14,1162.88a1.37,1.37,0,0,1-.57.11,0.78,0.78,0,0,1-.84-0.83,1.26,1.26,0,0,1,1.31-1.28,1.25,1.25,0,0,1,.41.07l-0.15.46a0.67,0.67,0,0,0-.27,0,0.7,0.7,0,0,0-.68.74,0.38,0.38,0,0,0,.39.42,1,1,0,0,0,.4-0.08v0.45Z" transform="translate(-172.06 -1134.23)"/><path class="cls-8" d="M226.46,1162.95l0.38-2h0.59l-0.38,2h-0.59Zm0.75-2.27a0.27,0.27,0,0,1-.28-0.29,0.33,0.33,0,0,1,.34-0.34,0.28,0.28,0,0,1,.3.29,0.33,0.33,0,0,1-.35.33h0Z" transform="translate(-172.06 -1134.23)"/><path class="cls-8" d="M228.86,1162.95c0-.12,0-0.26,0-0.4h0a0.76,0.76,0,0,1-.68.45,0.62,0.62,0,0,1-.61-0.7,1.36,1.36,0,0,1,1.44-1.41,2.35,2.35,0,0,1,.66.1l-0.21,1.06a5,5,0,0,0-.08.91h-0.54Zm0.17-1.6-0.16,0a0.82,0.82,0,0,0-.66.85,0.27,0.27,0,0,0,.24.33,0.7,0.7,0,0,0,.49-0.7Z" transform="translate(-172.06 -1134.23)"/><path class="cls-8" d="M232.74,1160.93l-0.25,1.36c0,0.26-.08.47-0.11,0.66h-0.52l0-.33h0a0.86,0.86,0,0,1-.69.38,0.49,0.49,0,0,1-.52-0.57,1.88,1.88,0,0,1,0-.37l0.21-1.13h0.59l-0.21,1.08a1.7,1.7,0,0,0,0,.27,0.2,0.2,0,0,0,.2.23,0.67,0.67,0,0,0,.48-0.64l0.18-.94h0.59Z" transform="translate(-172.06 -1134.23)"/><path class="cls-8" d="M232.86,1162.95l0.25-1.36c0.05-.26.08-0.47,0.11-0.66h0.52l0,0.33h0a0.85,0.85,0,0,1,.7-0.38,0.49,0.49,0,0,1,.52.55,2.46,2.46,0,0,1,0,.34l-0.22,1.17h-0.59l0.21-1.12a1.31,1.31,0,0,0,0-.22,0.2,0.2,0,0,0-.2-0.24,0.72,0.72,0,0,0-.5.69l-0.17.9h-0.59Z" transform="translate(-172.06 -1134.23)"/><path class="cls-8" d="M238.26,1162.95l0.17-1.15c0-.3.11-0.69,0.18-1.09h0c-0.15.36-.32,0.74-0.48,1l-0.57,1.14H237.1l-0.1-1.13c0-.31,0-0.69-0.06-1.06h0c-0.08.37-.16,0.78-0.23,1.09l-0.27,1.15h-0.54l0.69-2.78h0.79l0.09,1.06c0,0.26,0,.58,0,0.89h0a9,9,0,0,1,.37-0.89l0.51-1.06h0.8l-0.37,2.78h-0.57Z" transform="translate(-172.06 -1134.23)"/><path class="cls-8" d="M241.47,1160.93l-0.25,1.36c0,0.26-.08.47-0.11,0.66h-0.52l0-.33h0a0.86,0.86,0,0,1-.69.38,0.49,0.49,0,0,1-.52-0.57,1.87,1.87,0,0,1,0-.37l0.21-1.13h0.59l-0.21,1.08a1.7,1.7,0,0,0,0,.27,0.2,0.2,0,0,0,.2.23,0.67,0.67,0,0,0,.48-0.64l0.18-.94h0.59Z" transform="translate(-172.06 -1134.23)"/><path class="cls-8" d="M241.59,1162.95l0.25-1.36c0.05-.26.08-0.47,0.11-0.66h0.52l0,0.33h0a0.85,0.85,0,0,1,.7-0.38,0.49,0.49,0,0,1,.52.55,2.47,2.47,0,0,1,0,.34l-0.22,1.17h-0.59l0.21-1.12a1.31,1.31,0,0,0,0-.22,0.2,0.2,0,0,0-.2-0.24,0.72,0.72,0,0,0-.5.69l-0.17.9h-0.59Z" transform="translate(-172.06 -1134.23)"/><path class="cls-8" d="M246.26,1160l-0.41,2.15a5.38,5.38,0,0,0-.09.78h-0.54l0-.33h0a0.77,0.77,0,0,1-.66.37,0.66,0.66,0,0,1-.62-0.76,1.3,1.3,0,0,1,1.26-1.35,0.82,0.82,0,0,1,.27,0l0.18-.91h0.59Zm-0.84,1.39a0.39,0.39,0,0,0-.23-0.07,0.74,0.74,0,0,0-.61.8,0.31,0.31,0,0,0,.27.38,0.59,0.59,0,0,0,.46-0.57Z" transform="translate(-172.06 -1134.23)"/><path class="cls-8" d="M248.31,1161.71a1.2,1.2,0,0,1-1.2,1.28,0.8,0.8,0,0,1-.85-0.84,1.21,1.21,0,0,1,1.2-1.28A0.8,0.8,0,0,1,248.31,1161.71Zm-1.44.43a0.33,0.33,0,0,0,.32.39,0.77,0.77,0,0,0,.5-0.82,0.33,0.33,0,0,0-.32-0.38A0.76,0.76,0,0,0,246.88,1162.15Z" transform="translate(-172.06 -1134.23)"/><path class="cls-8" d="M249.32,1162.41a1.28,1.28,0,0,0,.52.14,0.21,0.21,0,0,0,.25-0.18,0.32,0.32,0,0,0-.25-0.26,0.64,0.64,0,0,1-.42-0.54,0.77,0.77,0,0,1,.88-0.7,1.15,1.15,0,0,1,.52.1l-0.14.42a1,1,0,0,0-.4-0.09,0.21,0.21,0,0,0-.26.18,0.33,0.33,0,0,0,.24.23,0.66,0.66,0,0,1,.45.55,0.78,0.78,0,0,1-.92.71,1.17,1.17,0,0,1-.61-0.16Z" transform="translate(-172.06 -1134.23)"/><path class="cls-8" d="M250.95,1162.95l0.38-2h0.59l-0.38,2h-0.59Zm0.75-2.27a0.27,0.27,0,0,1-.28-0.29,0.33,0.33,0,0,1,.34-0.34,0.28,0.28,0,0,1,.3.29,0.33,0.33,0,0,1-.35.33h0Z" transform="translate(-172.06 -1134.23)"/><path class="cls-8" d="M252,1162.95l0.25-1.36c0.05-.26.08-0.47,0.11-0.66h0.52l0,0.33h0a0.85,0.85,0,0,1,.7-0.38,0.49,0.49,0,0,1,.52.55,2.46,2.46,0,0,1,0,.34l-0.22,1.17h-0.59l0.21-1.12a1.35,1.35,0,0,0,0-.22,0.2,0.2,0,0,0-.2-0.24,0.72,0.72,0,0,0-.5.69l-0.17.9H252Z" transform="translate(-172.06 -1134.23)"/><path class="cls-8" d="M255.65,1160.16h1.62l-0.1.51h-1l-0.13.65h1l-0.1.5h-1l-0.21,1.12h-0.59Z" transform="translate(-172.06 -1134.23)"/><path class="cls-8" d="M257.14,1162.95l0.23-1.2c0.06-.31.08-0.64,0.1-0.82H258c0,0.14,0,.27,0,0.41h0a0.75,0.75,0,0,1,.64-0.46h0.11l-0.11.58h-0.09a0.73,0.73,0,0,0-.63.73l-0.14.75h-0.59Z" transform="translate(-172.06 -1134.23)"/><path class="cls-8" d="M260.77,1161.71a1.2,1.2,0,0,1-1.2,1.28,0.8,0.8,0,0,1-.85-0.84,1.21,1.21,0,0,1,1.2-1.28A0.8,0.8,0,0,1,260.77,1161.71Zm-1.44.43a0.33,0.33,0,0,0,.32.39,0.77,0.77,0,0,0,.5-0.82,0.33,0.33,0,0,0-.32-0.38A0.76,0.76,0,0,0,259.33,1162.15Z" transform="translate(-172.06 -1134.23)"/><path class="cls-8" d="M260.94,1162.95l0.25-1.36c0.05-.26.08-0.47,0.11-0.66h0.52l0,0.33h0a0.85,0.85,0,0,1,.7-0.38,0.49,0.49,0,0,1,.52.55,2.46,2.46,0,0,1,0,.34l-0.22,1.17h-0.59l0.21-1.12a1.35,1.35,0,0,0,0-.22,0.2,0.2,0,0,0-.2-0.24,0.72,0.72,0,0,0-.5.69l-0.17.9h-0.59Z" transform="translate(-172.06 -1134.23)"/><path class="cls-8" d="M264.39,1160.38l-0.1.54h0.43l-0.09.45H264.2l-0.14.69a1.45,1.45,0,0,0,0,.26,0.15,0.15,0,0,0,.17.17h0.16l-0.07.47a1.19,1.19,0,0,1-.35,0,0.44,0.44,0,0,1-.52-0.44,1.78,1.78,0,0,1,0-.38l0.15-.8h-0.25l0.08-.45h0.26l0.07-.38Z" transform="translate(-172.06 -1134.23)"/><path class="cls-8" d="M266.34,1162.83a1.72,1.72,0,0,1-.75.16,0.78,0.78,0,0,1-.87-0.85,1.21,1.21,0,0,1,1.17-1.25,0.62,0.62,0,0,1,.7.61c0,0.51-.5.7-1.3,0.68a0.45,0.45,0,0,0,.07.21,0.46,0.46,0,0,0,.39.16,1.25,1.25,0,0,0,.56-0.13Zm-0.52-1.51a0.51,0.51,0,0,0-.48.42c0.46,0,.69-0.06.69-0.25A0.19,0.19,0,0,0,265.82,1161.32Z" transform="translate(-172.06 -1134.23)"/><path class="cls-8" d="M266.72,1162.95l0.23-1.2c0.06-.31.08-0.64,0.1-0.82h0.51c0,0.14,0,.27,0,0.41h0a0.75,0.75,0,0,1,.64-0.46h0.11l-0.11.58h-0.09a0.73,0.73,0,0,0-.63.73l-0.14.75h-0.59Z" transform="translate(-172.06 -1134.23)"/><path class="cls-8" d="M269.51,1162.95c0-.12,0-0.26,0-0.4h0a0.76,0.76,0,0,1-.68.45,0.62,0.62,0,0,1-.61-0.7,1.36,1.36,0,0,1,1.44-1.41,2.35,2.35,0,0,1,.66.1l-0.21,1.06a4.92,4.92,0,0,0-.08.91h-0.54Zm0.17-1.6-0.16,0a0.82,0.82,0,0,0-.66.85,0.27,0.27,0,0,0,.24.33,0.7,0.7,0,0,0,.49-0.7Z" transform="translate(-172.06 -1134.23)"/><path class="cls-8" d="M270.54,1162.41a1.28,1.28,0,0,0,.52.14,0.21,0.21,0,0,0,.25-0.18,0.32,0.32,0,0,0-.25-0.26,0.64,0.64,0,0,1-.42-0.54,0.77,0.77,0,0,1,.88-0.7,1.15,1.15,0,0,1,.52.1l-0.14.42a1,1,0,0,0-.4-0.09,0.21,0.21,0,0,0-.26.18,0.33,0.33,0,0,0,.24.23,0.66,0.66,0,0,1,.45.55,0.78,0.78,0,0,1-.92.71,1.17,1.17,0,0,1-.61-0.16Z" transform="translate(-172.06 -1134.23)"/></g></svg>